<svg viewBox="0 0 720 740" xmlns="http://www.w3.org/2000/svg" font-family="ui-sans-serif,system-ui"><defs><marker id="arw" markerWidth="9" markerHeight="9" refX="7.5" refY="3" orient="auto" markerUnits="strokeWidth"><path d="M0,0 L8,3 L0,6 z" fill="#52606d"/></marker></defs><rect x="0" y="0" width="720" height="740" fill="#ffffff"/><text x="16" y="26" font-size="15" font-weight="700" fill="#1f2933">CFG 2  NegotiationService.engage()</text><rect x="125.0" y="48.0" width="150" height="32" rx="16.0" fill="#e6f4ea" stroke="#2f9e5f" stroke-width="1.5"/><text x="200" y="68" text-anchor="middle" font-size="11.5" fill="#1f2933" font-family="ui-sans-serif,system-ui">ENTRY  engage(input)</text><rect x="95.0" y="102.0" width="210" height="32" rx="5" fill="#ffffff" stroke="#9aa5b1" stroke-width="1.5"/><text x="200" y="118" text-anchor="middle" font-size="12" fill="#1f2933" font-family="ui-monospace,Menlo,monospace">load = getLoadById(loadId)</text><polygon points="200,156.0 260.0,186 200,216.0 140.0,186" fill="#e8f1fb" stroke="#2f6fb0" stroke-width="1.5"/><text x="200" y="186" text-anchor="middle" font-size="11" fill="#1f2933" font-family="ui-sans-serif,system-ui">load == null?</text><rect x="395.0" y="170.0" width="150" height="32" rx="16.0" fill="#fdecec" stroke="#d64545" stroke-width="1.5"/><text x="470" y="190" text-anchor="middle" font-size="11.5" fill="#1f2933" font-family="ui-sans-serif,system-ui">throw 404</text><polygon points="200,246.0 275.0,278 200,310.0 125.0,278" fill="#e8f1fb" stroke="#2f6fb0" stroke-width="1.5"/><text x="200" y="271" text-anchor="middle" font-size="11" fill="#1f2933" font-family="ui-sans-serif,system-ui">load.assignedDriverId</text><text x="200" y="284" text-anchor="middle" font-size="11" fill="#1f2933" font-family="ui-sans-serif,system-ui">set?</text><rect x="380.0" y="262.0" width="180" height="32" rx="16.0" fill="#fdecec" stroke="#d64545" stroke-width="1.5"/><text x="470" y="282" text-anchor="middle" font-size="11.5" fill="#1f2933" font-family="ui-sans-serif,system-ui">throw 409 unavailable</text><polygon points="200,340.0 280.0,372 200,404.0 120.0,372" fill="#e8f1fb" stroke="#2f6fb0" stroke-width="1.5"/><text x="200" y="365" text-anchor="middle" font-size="11" fill="#1f2933" font-family="ui-sans-serif,system-ui">rateType PER_MILE</text><text x="200" y="378" text-anchor="middle" font-size="11" fill="#1f2933" font-family="ui-sans-serif,system-ui">&amp;&amp; totalMiles?</text><rect x="90.0" y="430.0" width="220" height="44" rx="5" fill="#ffffff" stroke="#9aa5b1" stroke-width="1.5"/><text x="200" y="445" text-anchor="middle" font-size="12" fill="#1f2933" font-family="ui-monospace,Menlo,monospace">perMile=dollarsToCents(rate)</text><text x="200" y="459" text-anchor="middle" font-size="12" fill="#1f2933" font-family="ui-monospace,Menlo,monospace">postedLinehaul=rate*miles</text><rect x="375.0" y="430.0" width="190" height="44" rx="5" fill="#ffffff" stroke="#9aa5b1" stroke-width="1.5"/><text x="470" y="445" text-anchor="middle" font-size="12" fill="#1f2933" font-family="ui-monospace,Menlo,monospace">perMile=null</text><text x="470" y="459" text-anchor="middle" font-size="12" fill="#1f2933" font-family="ui-monospace,Menlo,monospace">postedLinehaul=dollars(rate)</text><rect x="185.0" y="512.0" width="230" height="40" rx="5" fill="#ffffff" stroke="#9aa5b1" stroke-width="1.5"/><text x="300" y="525" text-anchor="middle" font-size="12" fill="#1f2933" font-family="ui-monospace,Menlo,monospace">try: conditional PutCommand lock</text><text x="300" y="539" text-anchor="middle" font-size="12" fill="#1f2933" font-family="ui-monospace,Menlo,monospace">(attribute_not_exists loadId)</text><polygon points="300,581.0 375.0,612 300,643.0 225.0,612" fill="#e8f1fb" stroke="#2f6fb0" stroke-width="1.5"/><text x="300" y="605" text-anchor="middle" font-size="11" fill="#1f2933" font-family="ui-sans-serif,system-ui">ConditionalCheck</text><text x="300" y="618" text-anchor="middle" font-size="11" fill="#1f2933" font-family="ui-sans-serif,system-ui">failed?</text><rect x="485.0" y="597.0" width="150" height="30" rx="15.0" fill="#fdecec" stroke="#d64545" stroke-width="1.5"/><text x="560" y="616" text-anchor="middle" font-size="11.5" fill="#1f2933" font-family="ui-sans-serif,system-ui">throw 409</text><rect x="210.0" y="675.0" width="180" height="30" rx="15.0" fill="#fdecec" stroke="#d64545" stroke-width="1.5"/><text x="300" y="694" text-anchor="middle" font-size="11.5" fill="#1f2933" font-family="ui-sans-serif,system-ui">rethrow (unknown error)</text><rect x="45.0" y="595.0" width="150" height="34" rx="17.0" fill="#e6f4ea" stroke="#2f9e5f" stroke-width="1.5"/><text x="120" y="616" text-anchor="middle" font-size="11.5" fill="#1f2933" font-family="ui-sans-serif,system-ui">putItem(neg); return neg</text><line x1="200" y1="80" x2="200" y2="102" stroke="#52606d" stroke-width="1.4" marker-end="url(#arw)"/><line x1="200" y1="134" x2="200" y2="156" stroke="#52606d" stroke-width="1.4" marker-end="url(#arw)"/><line x1="260" y1="186" x2="395" y2="186" stroke="#52606d" stroke-width="1.4" marker-end="url(#arw)"/><rect x="318.5" y="177.0" width="18" height="15" rx="3" fill="#ffffff" opacity="0.9"/><text x="327.5" y="188.0" text-anchor="middle" font-size="10.5" font-weight="600" fill="#3e4c59" font-family="ui-sans-serif,system-ui">Yes</text><line x1="200" y1="216" x2="200" y2="246" stroke="#52606d" stroke-width="1.4" marker-end="url(#arw)"/><rect x="206" y="222" width="18" height="15" rx="3" fill="#ffffff" opacity="0.9"/><text x="215" y="233" text-anchor="middle" font-size="10.5" font-weight="600" fill="#3e4c59" font-family="ui-sans-serif,system-ui">No</text><line x1="275" y1="278" x2="380" y2="278" stroke="#52606d" stroke-width="1.4" marker-end="url(#arw)"/><rect x="318.5" y="269.0" width="18" height="15" rx="3" fill="#ffffff" opacity="0.9"/><text x="327.5" y="280.0" text-anchor="middle" font-size="10.5" font-weight="600" fill="#3e4c59" font-family="ui-sans-serif,system-ui">Yes</text><line x1="200" y1="310" x2="200" y2="340" stroke="#52606d" stroke-width="1.4" marker-end="url(#arw)"/><rect x="206" y="316" width="18" height="15" rx="3" fill="#ffffff" opacity="0.9"/><text x="215" y="327" text-anchor="middle" font-size="10.5" font-weight="600" fill="#3e4c59" font-family="ui-sans-serif,system-ui">No</text><line x1="200" y1="404" x2="200" y2="430" stroke="#52606d" stroke-width="1.4" marker-end="url(#arw)"/><rect x="206" y="408" width="18" height="15" rx="3" fill="#ffffff" opacity="0.9"/><text x="215" y="419" text-anchor="middle" font-size="10.5" font-weight="600" fill="#3e4c59" font-family="ui-sans-serif,system-ui">Yes</text><line x1="280" y1="372" x2="470" y2="430" stroke="#52606d" stroke-width="1.4" marker-end="url(#arw)"/><rect x="421" y="386" width="18" height="15" rx="3" fill="#ffffff" opacity="0.9"/><text x="430" y="397" text-anchor="middle" font-size="10.5" font-weight="600" fill="#3e4c59" font-family="ui-sans-serif,system-ui">No</text><line x1="200" y1="474" x2="290" y2="520" stroke="#52606d" stroke-width="1.4" marker-end="url(#arw)"/><line x1="470" y1="474" x2="410" y2="520" stroke="#52606d" stroke-width="1.4" marker-end="url(#arw)"/><line x1="300" y1="552" x2="300" y2="581" stroke="#52606d" stroke-width="1.4" marker-end="url(#arw)"/><line x1="375" y1="612" x2="485" y2="612" stroke="#52606d" stroke-width="1.4" marker-end="url(#arw)"/><rect x="421.0" y="603.0" width="18" height="15" rx="3" fill="#ffffff" opacity="0.9"/><text x="430.0" y="614.0" text-anchor="middle" font-size="10.5" font-weight="600" fill="#3e4c59" font-family="ui-sans-serif,system-ui">Yes</text><line x1="300" y1="643" x2="300" y2="675" stroke="#52606d" stroke-width="1.4" marker-end="url(#arw)"/><rect x="306" y="650" width="18" height="15" rx="3" fill="#ffffff" opacity="0.9"/><text x="315" y="661" text-anchor="middle" font-size="10.5" font-weight="600" fill="#3e4c59" font-family="ui-sans-serif,system-ui">No</text><line x1="225" y1="612" x2="195" y2="612" stroke="#52606d" stroke-width="1.4" marker-end="url(#arw)"/><rect x="201" y="594" width="18" height="15" rx="3" fill="#ffffff" opacity="0.9"/><text x="210" y="605" text-anchor="middle" font-size="10.5" font-weight="600" fill="#3e4c59" font-family="ui-sans-serif,system-ui">ok</text></svg>