<svg viewBox="0 0 700 850" xmlns="http://www.w3.org/2000/svg" font-family="ui-sans-serif,system-ui"><defs><marker id="arw" markerWidth="9" markerHeight="9" refX="7.5" refY="3" orient="auto" markerUnits="strokeWidth"><path d="M0,0 L8,3 L0,6 z" fill="#52606d"/></marker></defs><rect x="0" y="0" width="700" height="850" fill="#ffffff"/><text x="16" y="26" font-size="15" font-weight="700" fill="#1f2933">CFG 4  NegotiationService.acceptOffer()</text><rect x="125.0" y="45.0" width="170" height="30" rx="15.0" fill="#e6f4ea" stroke="#2f9e5f" stroke-width="1.5"/><text x="210" y="64" text-anchor="middle" font-size="11.5" fill="#1f2933" font-family="ui-sans-serif,system-ui">ENTRY  acceptOffer(id, actor)</text><rect x="92.5" y="93.0" width="235" height="30" rx="5" fill="#ffffff" stroke="#9aa5b1" stroke-width="1.5"/><text x="210" y="108" text-anchor="middle" font-size="12" fill="#1f2933" font-family="ui-monospace,Menlo,monospace">neg=requireNeg; requireActor</text><rect x="405.0" y="93.0" width="170" height="30" rx="15.0" fill="#fdecec" stroke="#d64545" stroke-width="1.5"/><text x="490" y="112" text-anchor="middle" font-size="11.5" fill="#1f2933" font-family="ui-sans-serif,system-ui">throw 404 / 403</text><rect x="92.5" y="151.0" width="235" height="30" rx="5" fill="#ffffff" stroke="#9aa5b1" stroke-width="1.5"/><text x="210" y="159" text-anchor="middle" font-size="12" fill="#1f2933" font-family="ui-monospace,Menlo,monospace">action = SHIPPER?ACCEPT_BID</text><text x="210" y="173" text-anchor="middle" font-size="12" fill="#1f2933" font-family="ui-monospace,Menlo,monospace">:ACCEPT_COUNTER</text><polygon points="210,206.0 285.0,238 210,270.0 135.0,238" fill="#e8f1fb" stroke="#2f6fb0" stroke-width="1.5"/><text x="210" y="231" text-anchor="middle" font-size="11" fill="#1f2933" font-family="ui-sans-serif,system-ui">status==ACCEPTED</text><text x="210" y="244" text-anchor="middle" font-size="11" fill="#1f2933" font-family="ui-sans-serif,system-ui">&amp;&amp; outcome==action?</text><rect x="400.0" y="223.0" width="180" height="30" rx="15.0" fill="#e6f4ea" stroke="#2f9e5f" stroke-width="1.5"/><text x="490" y="242" text-anchor="middle" font-size="11.5" fill="#1f2933" font-family="ui-sans-serif,system-ui">return neg (idempotent)</text><polygon points="210,301.0 280.0,330 210,359.0 140.0,330" fill="#e8f1fb" stroke="#2f6fb0" stroke-width="1.5"/><text x="210" y="330" text-anchor="middle" font-size="11" fill="#1f2933" font-family="ui-sans-serif,system-ui">expireIfOverdue?</text><rect x="410.0" y="315.0" width="160" height="30" rx="15.0" fill="#fdecec" stroke="#d64545" stroke-width="1.5"/><text x="490" y="334" text-anchor="middle" font-size="11.5" fill="#1f2933" font-family="ui-sans-serif,system-ui">throw 409 expired</text><polygon points="210,388.0 285.0,418 210,448.0 135.0,418" fill="#e8f1fb" stroke="#2f6fb0" stroke-width="1.5"/><text x="210" y="411" text-anchor="middle" font-size="11" fill="#1f2933" font-family="ui-sans-serif,system-ui">status !=</text><text x="210" y="424" text-anchor="middle" font-size="11" fill="#1f2933" font-family="ui-sans-serif,system-ui">expectStatus?</text><rect x="402.5" y="403.0" width="175" height="30" rx="15.0" fill="#fdecec" stroke="#d64545" stroke-width="1.5"/><text x="490" y="422" text-anchor="middle" font-size="11.5" fill="#1f2933" font-family="ui-sans-serif,system-ui">throw 409 not your turn</text><polygon points="210,479.0 285.0,508 210,537.0 135.0,508" fill="#e8f1fb" stroke="#2f6fb0" stroke-width="1.5"/><text x="210" y="501" text-anchor="middle" font-size="11" fill="#1f2933" font-family="ui-sans-serif,system-ui">basis ==</text><text x="210" y="514" text-anchor="middle" font-size="11" fill="#1f2933" font-family="ui-sans-serif,system-ui">PER_MILE?</text><polygon points="120,568.0 195.0,600 120,632.0 45.0,600" fill="#e8f1fb" stroke="#2f6fb0" stroke-width="1.5"/><text x="120" y="593" text-anchor="middle" font-size="11" fill="#1f2933" font-family="ui-sans-serif,system-ui">rate==null ||</text><text x="120" y="606" text-anchor="middle" font-size="11" fill="#1f2933" font-family="ui-sans-serif,system-ui">miles==null?</text><polygon points="360,571.0 430.0,600 360,629.0 290.0,600" fill="#e8f1fb" stroke="#2f6fb0" stroke-width="1.5"/><text x="360" y="593" text-anchor="middle" font-size="11" fill="#1f2933" font-family="ui-sans-serif,system-ui">totalCents</text><text x="360" y="606" text-anchor="middle" font-size="11" fill="#1f2933" font-family="ui-sans-serif,system-ui">== null?</text><rect x="50.0" y="675.0" width="140" height="30" rx="15.0" fill="#fdecec" stroke="#d64545" stroke-width="1.5"/><text x="120" y="694" text-anchor="middle" font-size="11.5" fill="#1f2933" font-family="ui-sans-serif,system-ui">throw 409 no offer</text><rect x="290.0" y="675.0" width="140" height="30" rx="15.0" fill="#fdecec" stroke="#d64545" stroke-width="1.5"/><text x="360" y="694" text-anchor="middle" font-size="11.5" fill="#1f2933" font-family="ui-sans-serif,system-ui">throw 409 no offer</text><rect x="60.0" y="735.0" width="300" height="34" rx="5" fill="#ffffff" stroke="#9aa5b1" stroke-width="1.5"/><text x="210" y="752" text-anchor="middle" font-size="12" fill="#1f2933" font-family="ui-monospace,Menlo,monospace">agreedRate/linehaul  -&gt;  finishAccepted(...)</text><rect x="135.0" y="791.0" width="150" height="30" rx="15.0" fill="#e6f4ea" stroke="#2f9e5f" stroke-width="1.5"/><text x="210" y="810" text-anchor="middle" font-size="11.5" fill="#1f2933" font-family="ui-sans-serif,system-ui">return (ACCEPTED)</text><line x1="210" y1="75" x2="210" y2="93" stroke="#52606d" stroke-width="1.4" marker-end="url(#arw)"/><line x1="327" y1="108" x2="405" y2="108" stroke="#52606d" stroke-width="1.4" marker-end="url(#arw)"/><rect x="357.0" y="99.0" width="18" height="15" rx="3" fill="#ffffff" opacity="0.9"/><text x="366.0" y="110.0" text-anchor="middle" font-size="10.5" font-weight="600" fill="#3e4c59" font-family="ui-sans-serif,system-ui">fail</text><line x1="210" y1="123" x2="210" y2="151" stroke="#52606d" stroke-width="1.4" marker-end="url(#arw)"/><line x1="210" y1="181" x2="210" y2="206" stroke="#52606d" stroke-width="1.4" marker-end="url(#arw)"/><line x1="285" y1="238" x2="400" y2="238" stroke="#52606d" stroke-width="1.4" marker-end="url(#arw)"/><rect x="333.5" y="229.0" width="18" height="15" rx="3" fill="#ffffff" opacity="0.9"/><text x="342.5" y="240.0" text-anchor="middle" font-size="10.5" font-weight="600" fill="#3e4c59" font-family="ui-sans-serif,system-ui">Yes</text><line x1="210" y1="270" x2="210" y2="301" stroke="#52606d" stroke-width="1.4" marker-end="url(#arw)"/><rect x="216" y="277" width="18" height="15" rx="3" fill="#ffffff" opacity="0.9"/><text x="225" y="288" text-anchor="middle" font-size="10.5" font-weight="600" fill="#3e4c59" font-family="ui-sans-serif,system-ui">No</text><line x1="280" y1="330" x2="410" y2="330" stroke="#52606d" stroke-width="1.4" marker-end="url(#arw)"/><rect x="336.0" y="321.0" width="18" height="15" rx="3" fill="#ffffff" opacity="0.9"/><text x="345.0" y="332.0" text-anchor="middle" font-size="10.5" font-weight="600" fill="#3e4c59" font-family="ui-sans-serif,system-ui">Yes</text><line x1="210" y1="359" x2="210" y2="388" stroke="#52606d" stroke-width="1.4" marker-end="url(#arw)"/><rect x="216" y="365" width="18" height="15" rx="3" fill="#ffffff" opacity="0.9"/><text x="225" y="376" text-anchor="middle" font-size="10.5" font-weight="600" fill="#3e4c59" font-family="ui-sans-serif,system-ui">No</text><line x1="285" y1="418" x2="402" y2="418" stroke="#52606d" stroke-width="1.4" marker-end="url(#arw)"/><rect x="334.5" y="409.0" width="18" height="15" rx="3" fill="#ffffff" opacity="0.9"/><text x="343.5" y="420.0" text-anchor="middle" font-size="10.5" font-weight="600" fill="#3e4c59" font-family="ui-sans-serif,system-ui">Yes</text><line x1="210" y1="448" x2="210" y2="479" stroke="#52606d" stroke-width="1.4" marker-end="url(#arw)"/><rect x="216" y="454" width="18" height="15" rx="3" fill="#ffffff" opacity="0.9"/><text x="225" y="465" text-anchor="middle" font-size="10.5" font-weight="600" fill="#3e4c59" font-family="ui-sans-serif,system-ui">No</text><line x1="160" y1="508" x2="120" y2="568" stroke="#52606d" stroke-width="1.4" marker-end="url(#arw)"/><rect x="101" y="536" width="18" height="15" rx="3" fill="#ffffff" opacity="0.9"/><text x="110" y="547" text-anchor="middle" font-size="10.5" font-weight="600" fill="#3e4c59" font-family="ui-sans-serif,system-ui">PER_MILE</text><line x1="270" y1="508" x2="360" y2="571" stroke="#52606d" stroke-width="1.4" marker-end="url(#arw)"/><rect x="321" y="536" width="18" height="15" rx="3" fill="#ffffff" opacity="0.9"/><text x="330" y="547" text-anchor="middle" font-size="10.5" font-weight="600" fill="#3e4c59" font-family="ui-sans-serif,system-ui">FLAT</text><line x1="120" y1="632" x2="120" y2="675" stroke="#52606d" stroke-width="1.4" marker-end="url(#arw)"/><rect x="126" y="646" width="18" height="15" rx="3" fill="#ffffff" opacity="0.9"/><text x="135" y="657" text-anchor="middle" font-size="10.5" font-weight="600" fill="#3e4c59" font-family="ui-sans-serif,system-ui">Yes</text><line x1="360" y1="629" x2="360" y2="675" stroke="#52606d" stroke-width="1.4" marker-end="url(#arw)"/><rect x="366" y="646" width="18" height="15" rx="3" fill="#ffffff" opacity="0.9"/><text x="375" y="657" text-anchor="middle" font-size="10.5" font-weight="600" fill="#3e4c59" font-family="ui-sans-serif,system-ui">Yes</text><line x1="195" y1="600" x2="188" y2="735" stroke="#52606d" stroke-width="1.4" marker-end="url(#arw)"/><rect x="213" y="653" width="18" height="15" rx="3" fill="#ffffff" opacity="0.9"/><text x="222" y="664" text-anchor="middle" font-size="10.5" font-weight="600" fill="#3e4c59" font-family="ui-sans-serif,system-ui">No</text><line x1="290" y1="600" x2="300" y2="735" stroke="#52606d" stroke-width="1.4" marker-end="url(#arw)"/><rect x="259" y="653" width="18" height="15" rx="3" fill="#ffffff" opacity="0.9"/><text x="268" y="664" text-anchor="middle" font-size="10.5" font-weight="600" fill="#3e4c59" font-family="ui-sans-serif,system-ui">No</text><line x1="210" y1="769" x2="210" y2="791" stroke="#52606d" stroke-width="1.4" marker-end="url(#arw)"/></svg>