<svg viewBox="0 0 700 710" xmlns="http://www.w3.org/2000/svg" font-family="ui-sans-serif,system-ui"><defs><marker id="arw" markerWidth="9" markerHeight="9" refX="7.5" refY="3" orient="auto" markerUnits="strokeWidth"><path d="M0,0 L8,3 L0,6 z" fill="#52606d"/></marker></defs><rect x="0" y="0" width="700" height="710" fill="#ffffff"/><text x="16" y="26" font-size="15" font-weight="700" fill="#1f2933">CFG 5  NegotiationService.finishAccepted()</text><rect x="130.0" y="45.0" width="180" height="30" rx="15.0" fill="#e6f4ea" stroke="#2f9e5f" stroke-width="1.5"/><text x="220" y="64" text-anchor="middle" font-size="11.5" fill="#1f2933" font-family="ui-sans-serif,system-ui">ENTRY  finishAccepted(...)</text><rect x="100.0" y="95.0" width="240" height="34" rx="5" fill="#ffffff" stroke="#9aa5b1" stroke-width="1.5"/><text x="220" y="105" text-anchor="middle" font-size="12" fill="#1f2933" font-family="ui-monospace,Menlo,monospace">assertIntegerCents(linehaul)</text><text x="220" y="119" text-anchor="middle" font-size="12" fill="#1f2933" font-family="ui-monospace,Menlo,monospace">[throws on non-integer]</text><rect x="425.0" y="97.0" width="150" height="30" rx="15.0" fill="#fdecec" stroke="#d64545" stroke-width="1.5"/><text x="500" y="116" text-anchor="middle" font-size="11.5" fill="#1f2933" font-family="ui-sans-serif,system-ui">throw (bad cents)</text><rect x="120.0" y="163.0" width="200" height="34" rx="5" fill="#ffffff" stroke="#9aa5b1" stroke-width="1.5"/><text x="220" y="173" text-anchor="middle" font-size="12" fill="#1f2933" font-family="ui-monospace,Menlo,monospace">try: transition(neg,</text><text x="220" y="187" text-anchor="middle" font-size="12" fill="#1f2933" font-family="ui-monospace,Menlo,monospace">expectStatus -&gt; ACCEPTED)</text><polygon points="220,228.0 295.0,260 220,292.0 145.0,260" fill="#e8f1fb" stroke="#2f6fb0" stroke-width="1.5"/><text x="220" y="260" text-anchor="middle" font-size="11" fill="#1f2933" font-family="ui-sans-serif,system-ui">transition threw?</text><polygon points="470,228.0 545.0,260 470,292.0 395.0,260" fill="#e8f1fb" stroke="#2f6fb0" stroke-width="1.5"/><text x="470" y="253" text-anchor="middle" font-size="11" fill="#1f2933" font-family="ui-sans-serif,system-ui">current.status</text><text x="470" y="266" text-anchor="middle" font-size="11" fill="#1f2933" font-family="ui-sans-serif,system-ui">== ACCEPTED?</text><rect x="382.5" y="337.0" width="175" height="30" rx="15.0" fill="#e6f4ea" stroke="#2f9e5f" stroke-width="1.5"/><text x="470" y="356" text-anchor="middle" font-size="11.5" fill="#1f2933" font-family="ui-sans-serif,system-ui">return current (idempotent)</text><rect x="395.0" y="395.0" width="150" height="30" rx="15.0" fill="#fdecec" stroke="#d64545" stroke-width="1.5"/><text x="470" y="414" text-anchor="middle" font-size="11.5" fill="#1f2933" font-family="ui-sans-serif,system-ui">rethrow</text><rect x="112.5" y="336.0" width="215" height="32" rx="5" fill="#ffffff" stroke="#9aa5b1" stroke-width="1.5"/><text x="220" y="352" text-anchor="middle" font-size="12" fill="#1f2933" font-family="ui-monospace,Menlo,monospace">appendOffer(party, action)</text><rect x="120.0" y="395.0" width="200" height="30" rx="5" fill="#ffffff" stroke="#9aa5b1" stroke-width="1.5"/><text x="220" y="410" text-anchor="middle" font-size="12" fill="#1f2933" font-family="ui-monospace,Menlo,monospace">load = getLoadById(loadId)</text><polygon points="220,447.0 307.5,480 220,513.0 132.5,480" fill="#e8f1fb" stroke="#2f6fb0" stroke-width="1.5"/><text x="220" y="473" text-anchor="middle" font-size="11" fill="#1f2933" font-family="ui-sans-serif,system-ui">assignedDriverId set</text><text x="220" y="486" text-anchor="middle" font-size="11" fill="#1f2933" font-family="ui-sans-serif,system-ui">&amp;&amp; != haulerDriver?</text><rect x="410.0" y="465.0" width="180" height="30" rx="15.0" fill="#fdecec" stroke="#d64545" stroke-width="1.5"/><text x="500" y="484" text-anchor="middle" font-size="11.5" fill="#1f2933" font-family="ui-sans-serif,system-ui">throw 409 other driver</text><polygon points="220,546.0 300.0,576 220,606.0 140.0,576" fill="#e8f1fb" stroke="#2f6fb0" stroke-width="1.5"/><text x="220" y="569" text-anchor="middle" font-size="11" fill="#1f2933" font-family="ui-sans-serif,system-ui">assignedDriverId</text><text x="220" y="582" text-anchor="middle" font-size="11" fill="#1f2933" font-family="ui-sans-serif,system-ui">empty?</text><rect x="385.0" y="559.0" width="170" height="34" rx="5" fill="#ffffff" stroke="#9aa5b1" stroke-width="1.5"/><text x="470" y="569" text-anchor="middle" font-size="12" fill="#1f2933" font-family="ui-monospace,Menlo,monospace">assignDriver(load,</text><text x="470" y="583" text-anchor="middle" font-size="12" fill="#1f2933" font-family="ui-monospace,Menlo,monospace">haulerDriver)</text><rect x="110.0" y="644.0" width="220" height="32" rx="5" fill="#ffffff" stroke="#9aa5b1" stroke-width="1.5"/><text x="220" y="660" text-anchor="middle" font-size="12" fill="#1f2933" font-family="ui-monospace,Menlo,monospace">releaseLock; return getById</text><line x1="220" y1="75" x2="220" y2="95" stroke="#52606d" stroke-width="1.4" marker-end="url(#arw)"/><line x1="340" y1="112" x2="425" y2="112" stroke="#52606d" stroke-width="1.4" marker-end="url(#arw)"/><rect x="373.5" y="103.0" width="18" height="15" rx="3" fill="#ffffff" opacity="0.9"/><text x="382.5" y="114.0" text-anchor="middle" font-size="10.5" font-weight="600" fill="#3e4c59" font-family="ui-sans-serif,system-ui">n/a</text><line x1="220" y1="129" x2="220" y2="163" stroke="#52606d" stroke-width="1.4" marker-end="url(#arw)"/><line x1="220" y1="197" x2="220" y2="228" stroke="#52606d" stroke-width="1.4" marker-end="url(#arw)"/><line x1="295" y1="260" x2="395" y2="260" stroke="#52606d" stroke-width="1.4" marker-end="url(#arw)"/><rect x="336.0" y="251.0" width="18" height="15" rx="3" fill="#ffffff" opacity="0.9"/><text x="345.0" y="262.0" text-anchor="middle" font-size="10.5" font-weight="600" fill="#3e4c59" font-family="ui-sans-serif,system-ui">Yes</text><line x1="220" y1="292" x2="220" y2="336" stroke="#52606d" stroke-width="1.4" marker-end="url(#arw)"/><rect x="226" y="305" width="18" height="15" rx="3" fill="#ffffff" opacity="0.9"/><text x="235" y="316" text-anchor="middle" font-size="10.5" font-weight="600" fill="#3e4c59" font-family="ui-sans-serif,system-ui">No</text><line x1="470" y1="292" x2="470" y2="337" stroke="#52606d" stroke-width="1.4" marker-end="url(#arw)"/><rect x="478" y="306" width="18" height="15" rx="3" fill="#ffffff" opacity="0.9"/><text x="487" y="317" text-anchor="middle" font-size="10.5" font-weight="600" fill="#3e4c59" font-family="ui-sans-serif,system-ui">Yes</text><line x1="500" y1="292" x2="500" y2="395" stroke="#52606d" stroke-width="1.4" marker-end="url(#arw)"/><rect x="506" y="336" width="18" height="15" rx="3" fill="#ffffff" opacity="0.9"/><text x="515" y="347" text-anchor="middle" font-size="10.5" font-weight="600" fill="#3e4c59" font-family="ui-sans-serif,system-ui">No</text><line x1="220" y1="368" x2="220" y2="394" stroke="#52606d" stroke-width="1.4" marker-end="url(#arw)"/><line x1="220" y1="426" x2="220" y2="447" stroke="#52606d" stroke-width="1.4" marker-end="url(#arw)"/><line x1="307" y1="480" x2="410" y2="480" stroke="#52606d" stroke-width="1.4" marker-end="url(#arw)"/><rect x="349.5" y="471.0" width="18" height="15" rx="3" fill="#ffffff" opacity="0.9"/><text x="358.5" y="482.0" text-anchor="middle" font-size="10.5" font-weight="600" fill="#3e4c59" font-family="ui-sans-serif,system-ui">Yes</text><line x1="220" y1="513" x2="220" y2="546" stroke="#52606d" stroke-width="1.4" marker-end="url(#arw)"/><rect x="226" y="521" width="18" height="15" rx="3" fill="#ffffff" opacity="0.9"/><text x="235" y="532" text-anchor="middle" font-size="10.5" font-weight="600" fill="#3e4c59" font-family="ui-sans-serif,system-ui">No</text><line x1="300" y1="576" x2="385" y2="576" stroke="#52606d" stroke-width="1.4" marker-end="url(#arw)"/><rect x="333.5" y="567.0" width="18" height="15" rx="3" fill="#ffffff" opacity="0.9"/><text x="342.5" y="578.0" text-anchor="middle" font-size="10.5" font-weight="600" fill="#3e4c59" font-family="ui-sans-serif,system-ui">Yes</text><line x1="220" y1="606" x2="220" y2="644" stroke="#52606d" stroke-width="1.4" marker-end="url(#arw)"/><rect x="226" y="616" width="18" height="15" rx="3" fill="#ffffff" opacity="0.9"/><text x="235" y="627" text-anchor="middle" font-size="10.5" font-weight="600" fill="#3e4c59" font-family="ui-sans-serif,system-ui">No</text><line x1="470" y1="593" x2="320" y2="650" stroke="#52606d" stroke-width="1.4" marker-end="url(#arw)"/></svg>