<svg viewBox="0 0 640 450" xmlns="http://www.w3.org/2000/svg" font-family="ui-sans-serif,system-ui"><defs><marker id="arw" markerWidth="9" markerHeight="9" refX="7.5" refY="3" orient="auto" markerUnits="strokeWidth"><path d="M0,0 L8,3 L0,6 z" fill="#52606d"/></marker></defs><rect x="0" y="0" width="640" height="450" fill="#ffffff"/><text x="16" y="26" font-size="15" font-weight="700" fill="#1f2933">CFG 1  requireCarrierAcceptForAssignment()  — routes/negotiations.ts</text><rect x="75.0" y="53.0" width="230" height="34" rx="17.0" fill="#e6f4ea" stroke="#2f9e5f" stroke-width="1.5"/><text x="190" y="74" text-anchor="middle" font-size="11.5" fill="#1f2933" font-family="ui-sans-serif,system-ui">ENTRY  requireCarrierAccept(loadId)</text><rect x="65.0" y="110.0" width="250" height="40" rx="5" fill="#ffffff" stroke="#9aa5b1" stroke-width="1.5"/><text x="190" y="123" text-anchor="middle" font-size="12" fill="#1f2933" font-family="ui-monospace,Menlo,monospace">sig = requireSignature(</text><text x="190" y="137" text-anchor="middle" font-size="12" fill="#1f2933" font-family="ui-monospace,Menlo,monospace">loadId, &#x27;CARRIER_ACCEPT&#x27;)</text><polygon points="190,177.0 265.0,210 190,243.0 115.0,210" fill="#e8f1fb" stroke="#2f6fb0" stroke-width="1.5"/><text x="190" y="203" text-anchor="middle" font-size="11" fill="#1f2933" font-family="ui-sans-serif,system-ui">CARRIER_ACCEPT</text><text x="190" y="216" text-anchor="middle" font-size="11" fill="#1f2933" font-family="ui-sans-serif,system-ui">in chain?</text><rect x="375.0" y="193.0" width="190" height="34" rx="17.0" fill="#fdecec" stroke="#d64545" stroke-width="1.5"/><text x="470" y="214" text-anchor="middle" font-size="11.5" fill="#1f2933" font-family="ui-sans-serif,system-ui">throw 412  SIGNATURE_REQUIRED</text><polygon points="190,275.0 270.0,310 190,345.0 110.0,310" fill="#e8f1fb" stroke="#2f6fb0" stroke-width="1.5"/><text x="190" y="296" text-anchor="middle" font-size="11" fill="#1f2933" font-family="ui-sans-serif,system-ui">signerRole is</text><text x="190" y="309" text-anchor="middle" font-size="11" fill="#1f2933" font-family="ui-sans-serif,system-ui">CARRIER_ADMIN /</text><text x="190" y="322" text-anchor="middle" font-size="11" fill="#1f2933" font-family="ui-sans-serif,system-ui">OWNER_OPERATOR?</text><rect x="375.0" y="293.0" width="190" height="34" rx="17.0" fill="#fdecec" stroke="#d64545" stroke-width="1.5"/><text x="470" y="314" text-anchor="middle" font-size="11.5" fill="#1f2933" font-family="ui-sans-serif,system-ui">throw 409  SIGNER_INVALID</text><rect x="115.0" y="381.0" width="150" height="34" rx="17.0" fill="#e6f4ea" stroke="#2f9e5f" stroke-width="1.5"/><text x="190" y="402" text-anchor="middle" font-size="11.5" fill="#1f2933" font-family="ui-sans-serif,system-ui">return  (gate passes)</text><line x1="190" y1="87" x2="190" y2="110" stroke="#52606d" stroke-width="1.4" marker-end="url(#arw)"/><line x1="190" y1="150" x2="190" y2="177" stroke="#52606d" stroke-width="1.4" marker-end="url(#arw)"/><line x1="265" y1="210" x2="375" y2="210" stroke="#52606d" stroke-width="1.4" marker-end="url(#arw)"/><rect x="311.0" y="201.0" width="18" height="15" rx="3" fill="#ffffff" opacity="0.9"/><text x="320.0" y="212.0" text-anchor="middle" font-size="10.5" font-weight="600" fill="#3e4c59" font-family="ui-sans-serif,system-ui">No</text><line x1="190" y1="243" x2="190" y2="275" stroke="#52606d" stroke-width="1.4" marker-end="url(#arw)"/><rect x="196" y="250" width="18" height="15" rx="3" fill="#ffffff" opacity="0.9"/><text x="205" y="261" text-anchor="middle" font-size="10.5" font-weight="600" fill="#3e4c59" font-family="ui-sans-serif,system-ui">Yes</text><line x1="270" y1="310" x2="375" y2="310" stroke="#52606d" stroke-width="1.4" marker-end="url(#arw)"/><rect x="313.5" y="301.0" width="18" height="15" rx="3" fill="#ffffff" opacity="0.9"/><text x="322.5" y="312.0" text-anchor="middle" font-size="10.5" font-weight="600" fill="#3e4c59" font-family="ui-sans-serif,system-ui">No</text><line x1="190" y1="345" x2="190" y2="381" stroke="#52606d" stroke-width="1.4" marker-end="url(#arw)"/><rect x="196" y="354" width="18" height="15" rx="3" fill="#ffffff" opacity="0.9"/><text x="205" y="365" text-anchor="middle" font-size="10.5" font-weight="600" fill="#3e4c59" font-family="ui-sans-serif,system-ui">Yes</text></svg>