<svg viewBox="0 0 700 690" xmlns="http://www.w3.org/2000/svg" font-family="ui-sans-serif,system-ui"><defs><marker id="arw" markerWidth="9" markerHeight="9" refX="7.5" refY="3" orient="auto" markerUnits="strokeWidth"><path d="M0,0 L8,3 L0,6 z" fill="#52606d"/></marker></defs><rect x="0" y="0" width="700" height="690" fill="#ffffff"/><text x="16" y="26" font-size="15" font-weight="700" fill="#1f2933">CFG 3  NegotiationService.bid()</text><rect x="125.0" y="48.0" width="150" height="32" rx="16.0" fill="#e6f4ea" stroke="#2f9e5f" stroke-width="1.5"/><text x="200" y="68" text-anchor="middle" font-size="11.5" fill="#1f2933" font-family="ui-sans-serif,system-ui">ENTRY  bid(id, drv, amount)</text><rect x="80.0" y="100.0" width="240" height="32" rx="5" fill="#ffffff" stroke="#9aa5b1" stroke-width="1.5"/><text x="200" y="116" text-anchor="middle" font-size="12" fill="#1f2933" font-family="ui-monospace,Menlo,monospace">neg=requireNeg; requireHauler</text><polygon points="200,154.0 275.0,184 200,214.0 125.0,184" fill="#e8f1fb" stroke="#2f6fb0" stroke-width="1.5"/><text x="200" y="177" text-anchor="middle" font-size="11" fill="#1f2933" font-family="ui-sans-serif,system-ui">requireNeg /</text><text x="200" y="190" text-anchor="middle" font-size="11" fill="#1f2933" font-family="ui-sans-serif,system-ui">Hauler fail?</text><rect x="380.0" y="135.0" width="180" height="30" rx="15.0" fill="#fdecec" stroke="#d64545" stroke-width="1.5"/><text x="470" y="154" text-anchor="middle" font-size="11.5" fill="#1f2933" font-family="ui-sans-serif,system-ui">throw 404 / 403</text><polygon points="200,242.0 275.0,272 200,302.0 125.0,272" fill="#e8f1fb" stroke="#2f6fb0" stroke-width="1.5"/><text x="200" y="272" text-anchor="middle" font-size="11" fill="#1f2933" font-family="ui-sans-serif,system-ui">expireIfOverdue?</text><rect x="390.0" y="257.0" width="160" height="30" rx="15.0" fill="#fdecec" stroke="#d64545" stroke-width="1.5"/><text x="470" y="276" text-anchor="middle" font-size="11.5" fill="#1f2933" font-family="ui-sans-serif,system-ui">throw 409 expired</text><polygon points="200,330.0 275.0,360 200,390.0 125.0,360" fill="#e8f1fb" stroke="#2f6fb0" stroke-width="1.5"/><text x="200" y="360" text-anchor="middle" font-size="11" fill="#1f2933" font-family="ui-sans-serif,system-ui">status != ENGAGED?</text><rect x="385.0" y="345.0" width="170" height="30" rx="15.0" fill="#fdecec" stroke="#d64545" stroke-width="1.5"/><text x="470" y="364" text-anchor="middle" font-size="11.5" fill="#1f2933" font-family="ui-sans-serif,system-ui">throw 409 use counter</text><rect x="85.0" y="418.0" width="230" height="40" rx="5" fill="#ffffff" stroke="#9aa5b1" stroke-width="1.5"/><text x="200" y="431" text-anchor="middle" font-size="12" fill="#1f2933" font-family="ui-monospace,Menlo,monospace">offer = validateAmount(neg,</text><text x="200" y="445" text-anchor="middle" font-size="12" fill="#1f2933" font-family="ui-monospace,Menlo,monospace">amount)   [throws 400]</text><rect x="395.0" y="423.0" width="150" height="30" rx="15.0" fill="#fdecec" stroke="#d64545" stroke-width="1.5"/><text x="470" y="442" text-anchor="middle" font-size="11.5" fill="#1f2933" font-family="ui-sans-serif,system-ui">throw 400 bad amount</text><rect x="90.0" y="492.0" width="220" height="40" rx="5" fill="#ffffff" stroke="#9aa5b1" stroke-width="1.5"/><text x="200" y="505" text-anchor="middle" font-size="12" fill="#1f2933" font-family="ui-monospace,Menlo,monospace">transition ENGAGED -&gt;</text><text x="200" y="519" text-anchor="middle" font-size="12" fill="#1f2933" font-family="ui-monospace,Menlo,monospace">PENDING_SHIPPER</text><rect x="95.0" y="568.0" width="210" height="32" rx="5" fill="#ffffff" stroke="#9aa5b1" stroke-width="1.5"/><text x="200" y="584" text-anchor="middle" font-size="12" fill="#1f2933" font-family="ui-monospace,Menlo,monospace">appendOffer(HAULER, BID)</text><rect x="110.0" y="626.0" width="180" height="32" rx="16.0" fill="#e6f4ea" stroke="#2f9e5f" stroke-width="1.5"/><text x="200" y="646" text-anchor="middle" font-size="11.5" fill="#1f2933" font-family="ui-sans-serif,system-ui">return getById(id)</text><line x1="200" y1="80" x2="200" y2="100" stroke="#52606d" stroke-width="1.4" marker-end="url(#arw)"/><line x1="200" y1="132" x2="200" y2="154" stroke="#52606d" stroke-width="1.4" marker-end="url(#arw)"/><line x1="275" y1="184" x2="380" y2="165" stroke="#52606d" stroke-width="1.4" marker-end="url(#arw)"/><rect x="331" y="161" width="18" height="15" rx="3" fill="#ffffff" opacity="0.9"/><text x="340" y="172" text-anchor="middle" font-size="10.5" font-weight="600" fill="#3e4c59" font-family="ui-sans-serif,system-ui">Yes</text><line x1="200" y1="214" x2="200" y2="242" stroke="#52606d" stroke-width="1.4" marker-end="url(#arw)"/><rect x="206" y="219" width="18" height="15" rx="3" fill="#ffffff" opacity="0.9"/><text x="215" y="230" text-anchor="middle" font-size="10.5" font-weight="600" fill="#3e4c59" font-family="ui-sans-serif,system-ui">No</text><line x1="275" y1="272" x2="390" y2="272" stroke="#52606d" stroke-width="1.4" marker-end="url(#arw)"/><rect x="323.5" y="263.0" width="18" height="15" rx="3" fill="#ffffff" opacity="0.9"/><text x="332.5" y="274.0" text-anchor="middle" font-size="10.5" font-weight="600" fill="#3e4c59" font-family="ui-sans-serif,system-ui">Yes</text><line x1="200" y1="302" x2="200" y2="330" stroke="#52606d" stroke-width="1.4" marker-end="url(#arw)"/><rect x="206" y="307" width="18" height="15" rx="3" fill="#ffffff" opacity="0.9"/><text x="215" y="318" text-anchor="middle" font-size="10.5" font-weight="600" fill="#3e4c59" font-family="ui-sans-serif,system-ui">No</text><line x1="275" y1="360" x2="385" y2="360" stroke="#52606d" stroke-width="1.4" marker-end="url(#arw)"/><rect x="321.0" y="351.0" width="18" height="15" rx="3" fill="#ffffff" opacity="0.9"/><text x="330.0" y="362.0" text-anchor="middle" font-size="10.5" font-weight="600" fill="#3e4c59" font-family="ui-sans-serif,system-ui">Yes</text><line x1="200" y1="390" x2="200" y2="418" stroke="#52606d" stroke-width="1.4" marker-end="url(#arw)"/><rect x="206" y="395" width="18" height="15" rx="3" fill="#ffffff" opacity="0.9"/><text x="215" y="406" text-anchor="middle" font-size="10.5" font-weight="600" fill="#3e4c59" font-family="ui-sans-serif,system-ui">No</text><line x1="315" y1="438" x2="395" y2="438" stroke="#52606d" stroke-width="1.4" marker-end="url(#arw)"/><rect x="346.0" y="429.0" width="18" height="15" rx="3" fill="#ffffff" opacity="0.9"/><text x="355.0" y="440.0" text-anchor="middle" font-size="10.5" font-weight="600" fill="#3e4c59" font-family="ui-sans-serif,system-ui">invalid</text><line x1="200" y1="458" x2="200" y2="492" stroke="#52606d" stroke-width="1.4" marker-end="url(#arw)"/><line x1="200" y1="532" x2="200" y2="568" stroke="#52606d" stroke-width="1.4" marker-end="url(#arw)"/><line x1="200" y1="600" x2="200" y2="626" stroke="#52606d" stroke-width="1.4" marker-end="url(#arw)"/></svg>